<svg width="18" height="21" viewBox="0 0 18 21" fill="none" xmlns="http://www.w3.org/2000/svg">
<g clip-path="url(#clip0)">
<path d="M18 20.3636H0V19.724C0 19.423 0.245418 19.1791 0.548262 19.1791H1.25959V1.48981C1.25959 0.667104 1.93084 0 2.75919 0H15.4055C16.2333 0 16.9046 0.667104 16.9046 1.48981V19.1791H17.4106C17.7362 19.1791 18 19.4413 18 19.7649V20.3636ZM2.45147 19.1791H15.7127V1.48981C15.7127 1.32129 15.5751 1.18453 15.4055 1.18453H2.75919C2.58962 1.18453 2.45201 1.32129 2.45201 1.48981V19.1791H2.45147Z" fill="#636363"/>
<path d="M7.31654 6.30531H5.64683C5.32936 6.30531 5.07202 6.04956 5.07202 5.73404V4.23777C5.07202 3.92225 5.32936 3.6665 5.64683 3.6665H7.31654C7.63401 3.6665 7.89135 3.92225 7.89135 4.23777V5.73404C7.89135 6.04902 7.63401 6.30531 7.31654 6.30531Z" fill="#636363"/>
<path d="M12.5443 6.30531H10.8746C10.5571 6.30531 10.2998 6.04956 10.2998 5.73404V4.23777C10.2998 3.92225 10.5571 3.6665 10.8746 3.6665H12.5443C12.8618 3.6665 13.1191 3.92225 13.1191 4.23777V5.73404C13.1191 6.04902 12.8618 6.30531 12.5443 6.30531Z" fill="#636363"/>
<path d="M7.31654 10.182H5.64683C5.32936 10.182 5.07202 9.92626 5.07202 9.61075V8.11448C5.07202 7.79896 5.32936 7.54321 5.64683 7.54321H7.31654C7.63401 7.54321 7.89135 7.79896 7.89135 8.11448V9.61075C7.89135 9.92572 7.63401 10.182 7.31654 10.182Z" fill="#636363"/>
<path d="M12.5443 10.182H10.8746C10.5571 10.182 10.2998 9.92626 10.2998 9.61075V8.11448C10.2998 7.79896 10.5571 7.54321 10.8746 7.54321H12.5443C12.8618 7.54321 13.1191 7.79896 13.1191 8.11448V9.61075C13.1191 9.92572 12.8618 10.182 12.5443 10.182Z" fill="#636363"/>
<path d="M10.4917 19.309H7.67236V15.8674C7.67236 15.5519 7.9297 15.2961 8.24717 15.2961H9.91688C10.2344 15.2961 10.4917 15.5519 10.4917 15.8674V19.309Z" fill="#636363"/>
<path d="M12.5443 14.0587H10.8746C10.5571 14.0587 10.2998 13.803 10.2998 13.4875V11.9912C10.2998 11.6757 10.5571 11.4199 10.8746 11.4199H12.5443C12.8618 11.4199 13.1191 11.6757 13.1191 11.9912V13.4875C13.1191 13.8024 12.8618 14.0587 12.5443 14.0587Z" fill="#636363"/>
<path d="M7.31654 14.0587H5.64683C5.32936 14.0587 5.07202 13.803 5.07202 13.4875V11.9912C5.07202 11.6757 5.32936 11.4199 5.64683 11.4199H7.31654C7.63401 11.4199 7.89135 11.6757 7.89135 11.9912V13.4875C7.89135 13.8024 7.63401 14.0587 7.31654 14.0587Z" fill="#636363"/>
</g>
<defs>
<clipPath id="clip0">
<rect width="18" height="20.3636" fill="white"/>
</clipPath>
</defs>
</svg>
