<svg width="23" height="18" viewBox="0 0 23 18" fill="none" xmlns="http://www.w3.org/2000/svg">
<g clip-path="url(#clip0)">
<path d="M22.8276 2.8208C22.6814 2.63275 22.4515 2.52305 22.2164 2.52305L5.74086 2.50738L5.23938 0.585056C5.14536 0.240291 4.83716 0 4.48194 0H0.783557C0.349989 0 0 0.349989 0 0.783557C0 1.21712 0.349989 1.56711 0.783557 1.56711H3.87599L4.37225 3.46854C4.37747 3.47899 4.37747 3.48944 4.38269 3.50511L6.52442 11.7011C6.61322 12.0459 6.92664 12.2862 7.28185 12.2862H20.3255C20.6911 12.2862 21.0045 12.0354 21.0881 11.6802L22.9739 3.48422C23.0313 3.24915 22.9739 3.00886 22.8276 2.8208ZM19.7038 10.7191H7.8878L6.14831 4.0745L21.2292 4.09017L19.7038 10.7191Z" fill="#636363"/>
<path d="M9.20432 17.1339C10.0698 17.1339 10.7714 16.4276 10.7714 15.5563C10.7714 14.6851 10.0698 13.9788 9.20432 13.9788C8.33883 13.9788 7.63721 14.6851 7.63721 15.5563C7.63721 16.4276 8.33883 17.1339 9.20432 17.1339Z" fill="#636363"/>
<path d="M18.6748 17.1339C19.5403 17.1339 20.2419 16.4276 20.2419 15.5563C20.2419 14.6851 19.5403 13.9788 18.6748 13.9788C17.8093 13.9788 17.1077 14.6851 17.1077 15.5563C17.1077 16.4276 17.8093 17.1339 18.6748 17.1339Z" fill="#636363"/>
</g>
<defs>
<clipPath id="clip0">
<rect width="23" height="17.139" fill="white"/>
</clipPath>
</defs>
</svg>
