<?xml version="1.0" standalone="no"?><!DOCTYPE svg PUBLIC "-//W3C//DTD SVG 1.1//EN" "http://www.w3.org/Graphics/SVG/1.1/DTD/svg11.dtd"><svg class="icon" height="512" viewBox="0 0 1024 1024" version="1.1" xmlns="http://www.w3.org/2000/svg"><path d="M511.6802 63.960025c246.693816 0 447.400375 200.834478 447.400375 447.720175s-200.706558 447.720175-447.400375 447.720175C264.986384 959.400375 64.279825 758.565896 64.279825 511.6802S264.986384 63.960025 511.6802 63.960025M511.6802 0C229.23273 0 0.3198 229.104809 0.3198 511.6802s228.912929 511.6802 511.3604 511.6802c282.38351 0 511.3604-229.104809 511.3604-511.6802S794.06371 0 511.6802 0L511.6802 0zM479.700187 214.074204l63.960025 0 0 453.732417-63.960025 0 0-453.732417ZM479.700187 745.326171l63.960025 0 0 63.960025-63.960025 0 0-63.960025Z" /></svg>