<svg width="18" height="18" viewBox="0 0 18 18" fill="none" xmlns="http://www.w3.org/2000/svg">
<g clip-path="url(#clip0)">
<path d="M17.7681 14.2873L10.3848 2.04267C10.0939 1.56029 9.56329 1.26062 8.99998 1.26062C8.43667 1.26062 7.90606 1.56029 7.61514 2.04271L0.231871 14.2873C-0.0687501 14.7859 -0.0776446 15.4106 0.208633 15.9175C0.49498 16.4245 1.03449 16.7394 1.61668 16.7394H16.3833C16.9655 16.7394 17.505 16.4245 17.7914 15.9175C18.0776 15.4105 18.0687 14.7858 17.7681 14.2873ZM16.7709 15.3412C16.6921 15.4808 16.5436 15.5675 16.3833 15.5675H1.61668C1.4564 15.5675 1.30786 15.4808 1.22908 15.3413C1.15026 15.2017 1.15272 15.0297 1.23544 14.8925L8.61878 2.64785C8.69887 2.51507 8.84494 2.43255 9.00002 2.43255C9.15506 2.43255 9.30113 2.51507 9.38122 2.64785L16.7645 14.8925C16.8473 15.0297 16.8497 15.2017 16.7709 15.3412Z" fill="#636363"/>
<path d="M9.0056 6.08221C8.55982 6.08221 8.21191 6.32142 8.21191 6.74547C8.21191 8.03929 8.36411 9.8985 8.36411 11.1924C8.36414 11.5294 8.65773 11.6707 9.00564 11.6707C9.26657 11.6707 9.63623 11.5294 9.63623 11.1924C9.63623 9.89853 9.78843 8.03933 9.78843 6.74547C9.78843 6.32145 9.42966 6.08221 9.0056 6.08221Z" fill="#636363"/>
<path d="M9.01641 12.4209C8.53804 12.4209 8.1792 12.8014 8.1792 13.2581C8.1792 13.7039 8.538 14.0953 9.01641 14.0953C9.46219 14.0953 9.84276 13.7039 9.84276 13.2581C9.84276 12.8014 9.46216 12.4209 9.01641 12.4209Z" fill="#636363"/>
</g>
<defs>
<clipPath id="clip0">
<rect width="18" height="18" fill="white"/>
</clipPath>
</defs>
</svg>
