<svg width="14" height="19" viewBox="0 0 14 19" fill="none" xmlns="http://www.w3.org/2000/svg">
<g clip-path="url(#clip0)">
<path d="M13.3807 7.50988H11.9109V4.41758C11.8697 2.89 10.788 0 6.98142 0C3.17075 0 2.09319 2.99322 2.0519 4.58685V7.50988H0.619286C0.276615 7.50988 0 7.78649 0 8.12916V15.9611C0 15.9817 0 16.0024 0.00412858 16.023C0.243586 18.4011 1.76703 18.9914 2.50605 18.9502C2.69183 18.9502 5.57358 18.9791 8.11265 18.9791C9.56591 18.9791 10.9077 18.9708 11.5724 18.9419C13.4922 18.8635 14 17.1006 14 16.1799V8.12916C14 7.78649 13.7193 7.50988 13.3807 7.50988ZM6.98142 1.23857C10.4618 1.23857 10.66 4.12445 10.6682 4.43409V7.50988H3.29047V4.60336C3.2946 4.46712 3.41433 1.23857 6.98142 1.23857ZM12.7614 16.1799C12.7614 16.3326 12.7284 17.6538 11.5229 17.7033C9.72692 17.7776 2.58862 17.7116 2.50192 17.7116C2.39045 17.7116 1.42436 17.6538 1.23857 15.928V8.74845H12.7614V16.1799Z" fill="#636363"/>
<path d="M6.387 13.4922V14.2312C6.387 14.5739 6.66361 14.8505 7.00629 14.8505C7.34896 14.8505 7.62557 14.5739 7.62557 14.2312V13.4881C8.0054 13.2693 8.2655 12.8688 8.2655 12.3981C8.2655 11.7045 7.69989 11.1389 7.00629 11.1389C6.31269 11.1389 5.74707 11.7045 5.74707 12.3981C5.74707 12.8564 5.99479 13.2734 6.387 13.4922Z" fill="#636363"/>
</g>
<defs>
<clipPath id="clip0">
<rect width="14" height="18.9791" fill="white"/>
</clipPath>
</defs>
</svg>
