<svg width="15" height="15" viewBox="0 0 15 15" fill="none" xmlns="http://www.w3.org/2000/svg">
<g clip-path="url(#clip0)">
<path d="M11.0128 0C9.23658 0 8.17082 0.888133 7.58881 1.81406C6.99169 0.888133 5.89569 0 4.08163 0C1.67423 0 0 2.226 0 4.22525C0 6.09977 0.982615 7.18065 2.76644 9.14588C4.44822 10.9977 7.15797 13.8284 7.18443 13.8549C7.18821 13.8587 7.19577 13.8624 7.19955 13.87C7.20333 13.8738 7.20333 13.8776 7.20711 13.8776C7.21088 13.8813 7.21844 13.8813 7.22222 13.8889C7.27135 13.9305 7.32426 13.9683 7.38473 13.9909C7.38851 13.9947 7.39607 13.9947 7.39985 13.9947C7.46032 14.0174 7.52457 14.0287 7.59259 14.0287C7.66062 14.0287 7.72487 14.0136 7.78912 13.9909C7.7929 13.9872 7.80045 13.9872 7.80423 13.9872C7.8647 13.9645 7.92139 13.9267 7.97052 13.8813C7.9743 13.8776 7.98186 13.8776 7.98564 13.8738C7.98942 13.87 7.98942 13.8662 7.9932 13.8662C7.99698 13.8624 8.00454 13.8587 8.00832 13.8511C8.03477 13.8209 10.6727 10.9902 12.3091 9.1421C14.0438 7.17687 15 6.09599 15 4.22902C15 2.226 13.3636 0 11.0128 0ZM11.4588 8.39002C10.2154 9.79592 8.3938 11.7687 7.58881 12.6379C6.76493 11.7725 4.88662 9.79214 3.60544 8.38624C1.76871 6.36054 1.13379 5.59335 1.13379 4.22525C1.13379 2.96296 2.18443 1.13379 4.07785 1.13379C6.59108 1.13379 7.01436 3.29932 7.03326 3.40136C7.03326 3.40892 7.03704 3.4127 7.03704 3.42026C7.04082 3.43915 7.04838 3.45805 7.05215 3.47695C7.05593 3.49206 7.06349 3.51096 7.07105 3.52608C7.07861 3.54497 7.08617 3.56009 7.09751 3.57521C7.10506 3.59033 7.11262 3.60544 7.12396 3.62056C7.1353 3.63946 7.15042 3.65457 7.16175 3.66969C7.17309 3.68103 7.18065 3.69237 7.19199 3.7037C7.21089 3.7226 7.22978 3.73772 7.24868 3.75283C7.25624 3.76039 7.26379 3.76795 7.27513 3.77173C7.29781 3.78685 7.32048 3.79819 7.34316 3.80952C7.35072 3.8133 7.36206 3.81708 7.36962 3.82464C7.39229 3.83598 7.41497 3.84354 7.44142 3.84732C7.45276 3.8511 7.4641 3.85488 7.47921 3.85865C7.48677 3.85865 7.49433 3.86243 7.50567 3.86621C7.52079 3.86999 7.5359 3.86621 7.55102 3.86999C7.56614 3.86999 7.58126 3.87377 7.59259 3.87377C7.61527 3.87377 7.63794 3.87377 7.66062 3.86999C7.67196 3.86999 7.67952 3.86999 7.69085 3.86999C7.69841 3.86999 7.70219 3.86621 7.70975 3.86621C7.73243 3.86243 7.75132 3.85488 7.77022 3.8511C7.78534 3.84732 7.80045 3.83976 7.81557 3.83598C7.83447 3.82842 7.84958 3.81708 7.86848 3.80952C7.8836 3.80197 7.89872 3.79441 7.91383 3.78307C7.92895 3.77173 7.94407 3.76039 7.95918 3.74906C7.97052 3.73772 7.98564 3.72638 7.99698 3.71504C8.01209 3.69992 8.02343 3.68481 8.03477 3.66969C8.04611 3.65835 8.05745 3.64324 8.065 3.62812C8.07634 3.613 8.0839 3.59788 8.09146 3.57899C8.09902 3.56387 8.11036 3.54497 8.11413 3.52986C8.12169 3.51474 8.12547 3.49962 8.12925 3.48073C8.13681 3.46183 8.14059 3.44293 8.14437 3.42026C8.14437 3.4127 8.14815 3.40892 8.14815 3.40136C8.16704 3.3031 8.55253 1.13379 11.0128 1.13379C12.8496 1.13379 13.8662 2.96296 13.8662 4.22525C13.8662 5.59713 13.2464 6.36432 11.4588 8.39002Z" fill="#636363"/>
</g>
<defs>
<clipPath id="clip0">
<rect width="15" height="14.0325" fill="white"/>
</clipPath>
</defs>
</svg>
