<svg width="19" height="18" viewBox="0 0 19 18" fill="none" xmlns="http://www.w3.org/2000/svg">
<g clip-path="url(#clip0)">
<path d="M18.9687 11.9631C18.998 11.8851 19.0084 11.7989 18.9813 11.7125L17.4161 6.64594V1.97123C17.4161 0.884893 16.5288 0 15.437 0H3.56202C2.47026 0 1.58297 0.884893 1.58297 1.97123V6.64594L0.0176953 11.7121C-0.00939454 11.7982 0.000996094 11.884 0.0303125 11.9627C0.0113867 12.0466 -0.000488281 12.1324 -0.000488281 12.2225V15.3766V16.9538C-0.000488281 17.1715 0.176895 17.3482 0.395469 17.3482H1.97893C2.1975 17.3482 2.37489 17.1715 2.37489 16.9538V15.771H16.6249V16.9538C16.6249 17.1715 16.8023 17.3482 17.0209 17.3482H18.6043C18.8229 17.3482 19.0003 17.1715 19.0003 16.9538V15.3766V12.2225C18.9995 12.1324 18.9877 12.0466 18.9687 11.9631ZM2.37451 1.97123C2.37451 1.31921 2.90741 0.78842 3.56202 0.78842H15.437C16.0916 0.78842 16.6245 1.31921 16.6245 1.97123V6.3081H15.5487L15.1799 4.83845C15.047 4.31099 14.5728 3.94247 14.0272 3.94247H11.4789C10.8243 3.94247 10.2914 4.47326 10.2914 5.12528V6.3081H8.70798V5.12602C8.70798 4.474 8.17509 3.94321 7.52048 3.94321H4.97217C4.42666 3.94321 3.95241 4.3121 3.81956 4.83919L3.45069 6.3081H2.37451V1.97123ZM14.7357 6.94534C14.6596 7.04144 14.5457 7.09689 14.4228 7.09689H11.4786C11.2607 7.09689 11.0826 6.92021 11.0826 6.70249V5.12528C11.0826 4.90757 11.2607 4.73089 11.4786 4.73089H14.0276C14.2098 4.73089 14.3672 4.85324 14.4117 5.02881L14.8077 6.60602C14.8377 6.72541 14.8117 6.8485 14.7357 6.94534ZM7.91681 5.12565V6.6988C7.91681 6.70028 7.91606 6.70102 7.91606 6.70286C7.91606 6.7036 7.91606 6.70434 7.91606 6.70434C7.91532 6.92132 7.73794 7.09689 7.52085 7.09689H4.57659C4.45301 7.09689 4.33983 7.04181 4.26375 6.94534C4.18768 6.8485 4.1617 6.72467 4.19176 6.60639L4.58772 5.02918C4.63188 4.85398 4.7896 4.73126 4.97254 4.73126H7.52085C7.73868 4.73126 7.91681 4.90794 7.91681 5.12565ZM2.27098 7.09689H3.46256C3.5045 7.21517 3.55905 7.32865 3.6392 7.43103C3.86706 7.71971 4.20846 7.88531 4.57659 7.88531H7.52085C8.0363 7.88531 8.47159 7.55412 8.63562 7.09689H10.3645C10.5286 7.55523 10.9639 7.88531 11.4793 7.88531H14.4236C14.7917 7.88531 15.132 7.71971 15.3602 7.43103C15.44 7.32939 15.4949 7.2148 15.5369 7.09689H16.7292L17.9516 11.0538C17.9055 11.0482 17.8606 11.0397 17.8131 11.0397H1.18701C1.13951 11.0397 1.09424 11.0482 1.04934 11.0538L2.27098 7.09689ZM1.58297 16.5594H0.791056V15.771H1.5826L1.58297 16.5594ZM18.208 16.5594H17.4164V15.771H18.208V16.5594ZM18.208 14.9822H0.791056V12.2222C0.791056 12.0045 0.969181 11.8278 1.18701 11.8278H17.812C18.0299 11.8278 18.208 12.0045 18.208 12.2222V14.9822Z" fill="#636363" stroke="#636363" stroke-width="0.3"/>
</g>
<defs>
<clipPath id="clip0">
<rect width="19" height="17.3478" fill="white" transform="matrix(-1 0 0 1 19 0)"/>
</clipPath>
</defs>
</svg>
