<svg width="16" height="20" viewBox="0 0 16 20" fill="none" xmlns="http://www.w3.org/2000/svg">
<g clip-path="url(#clip0)">
<path d="M0.601031 20C0.268825 20 0 19.7309 0 19.3984V2.46712C0 1.10476 1.10371 0 2.46477 0H9.71267C11.0054 0 12.0534 1.04898 12.0534 2.34297V4.13848H10.8513V2.34297C10.8513 1.71347 10.3416 1.2032 9.71267 1.2032H2.46477C1.76758 1.2032 1.20206 1.76926 1.20206 2.46712V19.3984C1.20206 19.7309 0.933238 20 0.601031 20Z" fill="#636363"/>
<path d="M14.4053 10.9027H8.6081C7.72896 10.9027 7.01318 10.1868 7.01318 9.30623V8.02154C7.01318 5.56427 9.01025 3.56531 11.4652 3.56531H11.5482C14.0032 3.56531 16.0002 5.56427 16.0002 8.02154V9.30623C16.0002 10.1862 15.285 10.9027 14.4053 10.9027ZM11.4652 4.76797C9.67302 4.76797 8.21525 6.22712 8.21525 8.02099V9.30569C8.21525 9.52226 8.39118 9.69892 8.6081 9.69892H14.4059C14.6222 9.69892 14.7987 9.52226 14.7987 9.30569V8.02099C14.7987 6.22712 13.3409 4.76797 11.5488 4.76797H11.4652Z" fill="#636363"/>
<path d="M8.01412 14.7754C7.68191 14.7754 7.41309 14.5063 7.41309 14.1738V13.3277C7.41309 12.9952 7.68191 12.7261 8.01412 12.7261C8.34632 12.7261 8.61515 12.9952 8.61515 13.3277V14.1738C8.61515 14.5063 8.34632 14.7754 8.01412 14.7754Z" fill="#636363"/>
<path d="M11.5068 14.7754C11.1746 14.7754 10.9058 14.5063 10.9058 14.1738V13.3277C10.9058 12.9952 11.1746 12.7261 11.5068 12.7261C11.839 12.7261 12.1078 12.9952 12.1078 13.3277V14.1738C12.1078 14.5063 11.839 14.7754 11.5068 14.7754Z" fill="#636363"/>
<path d="M15.0039 14.7754C14.6717 14.7754 14.4028 14.5063 14.4028 14.1738V13.3277C14.4028 12.9952 14.6717 12.7261 15.0039 12.7261C15.3361 12.7261 15.6049 12.9952 15.6049 13.3277V14.1738C15.6049 14.5063 15.3361 14.7754 15.0039 14.7754Z" fill="#636363"/>
<path d="M8.01412 19.1616C7.68191 19.1616 7.41309 18.8925 7.41309 18.56V17.7139C7.41309 17.3814 7.68191 17.1123 8.01412 17.1123C8.34632 17.1123 8.61515 17.3814 8.61515 17.7139V18.56C8.61515 18.892 8.34632 19.1616 8.01412 19.1616Z" fill="#636363"/>
<path d="M11.5068 19.1616C11.1746 19.1616 10.9058 18.8925 10.9058 18.56V17.7139C10.9058 17.3814 11.1746 17.1123 11.5068 17.1123C11.839 17.1123 12.1078 17.3814 12.1078 17.7139V18.56C12.1078 18.892 11.839 19.1616 11.5068 19.1616Z" fill="#636363"/>
<path d="M15.0039 19.1616C14.6717 19.1616 14.4028 18.8925 14.4028 18.56V17.7139C14.4028 17.3814 14.6717 17.1123 15.0039 17.1123C15.3361 17.1123 15.6049 17.3814 15.6049 17.7139V18.56C15.6049 18.892 15.3361 19.1616 15.0039 19.1616Z" fill="#636363"/>
</g>
<defs>
<clipPath id="clip0">
<rect width="16" height="20" fill="white"/>
</clipPath>
</defs>
</svg>
