<svg width="15" height="17" viewBox="0 0 15 17" fill="none" xmlns="http://www.w3.org/2000/svg">
<g clip-path="url(#clip0)">
<path d="M14.2595 12.9713C14.2595 10.4837 11.2313 8.46246 7.49986 8.46246C3.76837 8.46246 0.740234 10.4837 0.740234 12.9713" stroke="#636363" stroke-width="1.2" stroke-linecap="round"/>
<path d="M7.8257 8.46247C9.95798 8.46247 11.6905 6.72999 11.6905 4.59771C11.6905 2.46543 9.95798 0.740356 7.8257 0.740356C5.69342 0.740356 3.96094 2.47283 3.96094 4.60511C3.96094 6.73739 5.68601 8.46247 7.8257 8.46247Z" stroke="#636363" stroke-width="1.2" stroke-linecap="round"/>
<path d="M14.2595 12.9714V15.0814C14.2595 15.2665 14.1928 15.5405 13.9929 15.5405H1.16965C0.977154 15.5479 0.740234 15.2739 0.740234 15.0888V12.9788" stroke="#636363" stroke-width="1.2" stroke-linecap="round"/>
</g>
<defs>
<clipPath id="clip0">
<rect width="15" height="16.2883" fill="white"/>
</clipPath>
</defs>
</svg>
