<svg width="18" height="19" viewBox="0 0 18 19" fill="none" xmlns="http://www.w3.org/2000/svg">
<g clip-path="url(#clip0)">
<path d="M14.579 18.0668C13.55 18.0668 11.814 17.4187 10.3962 16.7392C7.14806 15.1839 1.567 9.05301 0.726506 6.12305C0.227706 4.82303 0.0195455 3.80187 0.12559 3.16953C0.15701 2.97315 0.227706 2.56469 2.66279 0.45166L2.69421 0.424167C3.04376 0.161021 3.89604 -0.168894 4.61479 0.447733C5.20392 0.95046 6.51965 2.9653 6.77887 3.36198C6.86528 3.50337 7.53689 4.65022 7.03024 5.50643C6.79458 5.90311 6.3547 6.77503 6.12297 7.23848C6.65319 8.00435 8.31847 10.247 10.6986 12.0065L12.25 11.166C12.3324 11.1268 13.0747 10.8126 14.0056 11.1464L14.1391 11.2132L17.2929 13.3537C17.3519 13.4008 17.8546 13.8446 17.8978 14.5005C17.9174 14.7676 17.8624 15.1761 17.5011 15.5806C17.3833 15.7102 17.238 15.887 17.073 16.0833C16.2246 17.0966 15.5845 17.8311 15.0307 18C14.905 18.0471 14.7518 18.0668 14.579 18.0668ZM1.28029 3.42482C1.26458 3.63691 1.28422 4.29281 1.838 5.72637L1.85371 5.78136C2.58817 8.42067 7.91786 14.2492 10.9028 15.6788C13.1337 16.7471 14.4337 16.9553 14.685 16.8846C14.9718 16.7707 15.8123 15.7652 16.1697 15.3371C16.3425 15.1289 16.4996 14.9443 16.6213 14.803C16.7234 14.6851 16.7195 14.6184 16.7195 14.5948C16.7117 14.4809 16.6056 14.3434 16.5428 14.2767L13.5421 12.2422C13.1297 12.1165 12.8077 12.2186 12.7448 12.2422L10.6082 13.4008L10.3097 13.1887C7.04202 10.8872 5.02718 7.73728 4.9447 7.60374L4.76796 7.32489L4.91328 7.03032C4.9447 6.96748 5.66345 5.5025 6.013 4.91337C6.10333 4.76019 5.96194 4.29281 5.78127 3.99432C5.22749 3.13811 4.20239 1.64957 3.84891 1.34322C3.68788 1.20575 3.48758 1.3118 3.40903 1.36285C2.51747 2.13658 1.49238 3.11454 1.28029 3.42482Z" fill="#636363"/>
<path d="M14.579 18.1648C13.2476 18.1648 11.0089 17.1436 10.353 16.8294C7.10881 15.2741 1.47669 9.08823 0.63227 6.15041C0.129542 4.83861 -0.0786183 3.80173 0.0274258 3.15369C0.0627738 2.92982 0.13347 2.5135 2.59605 0.376905L2.6314 0.349412C3.00452 0.0705552 3.90785 -0.282925 4.67765 0.376905C5.27464 0.887487 6.59823 2.91411 6.85745 3.31472C6.93993 3.45218 7.64689 4.65402 7.10881 5.56521C6.87709 5.95796 6.4372 6.82988 6.23297 7.24228C6.84567 8.11812 8.43633 10.2154 10.7025 11.9043L12.1989 11.0913C12.2893 11.0481 13.0591 10.7182 14.037 11.0677L14.1823 11.1384L17.348 13.2868C17.4147 13.3457 17.9489 13.8092 17.996 14.5043C18.0156 14.791 17.9607 15.2231 17.5758 15.6551C17.4619 15.7808 17.3205 15.9536 17.1594 16.1421C16.2914 17.1829 15.6395 17.9252 15.0621 18.102C14.9286 18.1412 14.7636 18.1648 14.579 18.1648ZM3.68398 0.196237C3.29123 0.196237 2.9456 0.361194 2.75315 0.502587L2.72173 0.530079C0.314138 2.61561 0.251297 3.0123 0.219876 3.18511C0.11776 3.79781 0.32592 4.80326 0.816865 6.08757C1.65343 8.99789 7.22664 15.1131 10.4355 16.6527C12.4896 17.6346 14.2923 18.1373 15.0032 17.9174C15.5295 17.7563 16.1618 17.0337 16.9984 16.0321C17.1673 15.8279 17.3126 15.6551 17.4265 15.5255C17.7643 15.1484 17.8153 14.7714 17.7957 14.52C17.7525 13.9034 17.2773 13.4871 17.2223 13.4439L14.0763 11.3073L13.9545 11.2445C13.0473 10.9224 12.3128 11.2523 12.2814 11.2641L10.679 12.1321L10.6279 12.0967C8.27137 10.3529 6.62965 8.16525 6.03266 7.30512L6.00124 7.25799L6.02874 7.20693C6.26832 6.72777 6.70035 5.86763 6.936 5.46702C7.41516 4.65402 6.76319 3.54644 6.68857 3.42076C6.43327 3.02801 5.12147 1.02102 4.54412 0.530079C4.26919 0.282643 3.96284 0.196237 3.68398 0.196237ZM14.5672 16.9865C14.0959 16.9865 12.8548 16.7155 10.8636 15.7651C7.85898 14.3276 2.49786 8.46375 1.75948 5.80479L1.74377 5.75373C1.18606 4.31624 1.16642 3.6407 1.18213 3.41683V3.38934L1.19784 3.36578C1.42171 3.03586 2.46251 2.05004 3.34229 1.2881C3.5583 1.14671 3.76253 1.14278 3.90785 1.26846C4.26919 1.57874 5.29428 3.06728 5.85592 3.93527C6.03659 4.23377 6.21333 4.7522 6.09158 4.96036C5.74202 5.55343 5.00364 7.05768 4.99579 7.07339L4.87403 7.32083L5.02328 7.55255C5.10576 7.68609 7.11667 10.8242 10.3648 13.11L10.6122 13.2868L12.6938 12.1557C12.7724 12.1242 13.1219 12.0143 13.5657 12.1478L13.5932 12.1596L16.5939 14.1941C16.641 14.2373 16.806 14.4101 16.8138 14.5868C16.8138 14.6222 16.8217 14.7203 16.6921 14.8657C16.5703 15.0031 16.4132 15.1917 16.2404 15.3959C15.6395 16.1146 14.9914 16.8648 14.7165 16.9708C14.6851 16.9826 14.634 16.9865 14.5672 16.9865ZM1.37458 3.45611C1.3628 3.69176 1.406 4.33588 1.92836 5.68696L1.948 5.74588C2.67853 8.37341 7.9768 14.1666 10.946 15.5883C13.1965 16.6645 14.4533 16.8452 14.6576 16.7862C14.9129 16.6841 15.8005 15.6237 16.0911 15.2741C16.2679 15.062 16.425 14.8774 16.5507 14.7361C16.586 14.6968 16.6253 14.6418 16.6253 14.5986C16.6214 14.5279 16.5467 14.414 16.476 14.3472L13.5029 12.3324C13.1258 12.2224 12.8352 12.3128 12.7802 12.3324L10.6043 13.5185L10.2548 13.2711C6.9792 10.9617 4.94473 7.79213 4.86225 7.6586L4.65802 7.33261L4.8269 6.98698C4.83476 6.97127 5.57707 5.46309 5.93055 4.86218C5.98553 4.76791 5.88342 4.35159 5.69882 4.04132C5.10183 3.12227 4.11601 1.70049 3.7861 1.41771C3.68006 1.32737 3.53866 1.39807 3.46404 1.4452C2.52143 2.26606 1.59452 3.15762 1.37458 3.45611Z" fill="#636363"/>
</g>
<defs>
<clipPath id="clip0">
<rect width="18" height="18.165" fill="white"/>
</clipPath>
</defs>
</svg>
