<svg width="17" height="16" viewBox="0 0 17 16" fill="none" xmlns="http://www.w3.org/2000/svg">
<g clip-path="url(#clip0)">
<path d="M8.50261 15.9801C8.45659 15.9801 8.41057 15.9762 8.36455 15.9647C8.10762 15.8995 7.92738 15.6694 7.92738 15.4048V8.52124L0.529902 7.923C0.265296 7.89999 0.0505427 7.70441 0.00835907 7.44364C-0.0338246 7.18287 0.108066 6.92593 0.349663 6.82239L16.1992 0.0461672C16.4216 -0.0497047 16.6862 0.00781843 16.8511 0.188058C17.016 0.368297 17.0505 0.632903 16.9355 0.847656L9.00881 15.6733C8.90527 15.865 8.70969 15.9801 8.50261 15.9801ZM2.94204 6.96428L8.54863 7.4168C8.84775 7.43981 9.07784 7.68907 9.07784 7.99203V13.1078L15.1484 1.74885L2.94204 6.96428Z" fill="#636363"/>
</g>
<defs>
<clipPath id="clip0">
<rect width="17" height="15.9799" fill="white"/>
</clipPath>
</defs>
</svg>
