<svg width="22" height="26" viewBox="0 0 22 26" fill="none" xmlns="http://www.w3.org/2000/svg">
<g clip-path="url(#clip0)">
<path d="M12.8506 24.7996L2.6092 21.6637C1.47854 21.3174 0.837016 20.1264 1.17923 19.0088L5.05824 6.3409C5.24038 5.74608 5.67538 5.26435 6.2517 5.0186L12.6926 2.27508C13.6618 1.862 14.7802 2.20447 15.3519 3.08938L19.1524 8.9689C19.4925 9.49468 19.583 10.1379 19.4009 10.7327L15.5219 23.4007C15.1797 24.5182 13.9813 25.1459 12.8506 24.7996ZM13.7843 3.45954C13.606 3.40496 13.4091 3.41139 13.2263 3.48945L6.78539 6.23298C6.56786 6.32571 6.40399 6.50735 6.33522 6.73192L2.45621 19.3998C2.32706 19.8216 2.56897 20.2708 2.9957 20.4014L13.2371 23.5374C13.6638 23.6681 14.1157 23.4314 14.2449 23.0096L18.1239 10.3417C18.1927 10.1171 18.1586 9.87488 18.0303 9.67625L14.2298 3.79673C14.1219 3.63024 13.9625 3.51412 13.7843 3.45954Z" fill="#636363"/>
<path d="M11.3477 13.719L9.94299 13.2889C9.44816 13.1373 9.16617 12.6138 9.31594 12.1247C9.46571 11.6356 9.99248 11.3597 10.4873 11.5112L12.9615 12.2688C13.3126 12.3764 13.6869 12.1804 13.7932 11.8332C13.8995 11.4861 13.6991 11.1142 13.348 11.0066L12.2146 10.6596L12.4659 9.83915C12.5722 9.49204 12.3718 9.12006 12.0206 9.01253C11.6695 8.905 11.2952 9.10102 11.1889 9.44813L10.9377 10.2686L10.8738 10.249C9.67132 9.88081 8.4013 10.5503 8.03896 11.7337C7.675 12.9223 8.35932 14.1845 9.55649 14.5511L10.9612 14.9812C11.456 15.1327 11.738 15.6562 11.5882 16.1453C11.4385 16.6345 10.9117 16.9103 10.4169 16.7588L7.89481 15.9865C7.54364 15.879 7.16935 16.075 7.06307 16.4221C6.95678 16.7693 7.15714 17.1412 7.50831 17.2488L8.68952 17.6105L8.43346 18.4467C8.32718 18.7938 8.52754 19.1658 8.87871 19.2733C9.22988 19.3808 9.60416 19.1848 9.71045 18.8377L9.9665 18.0015L10.041 18.0243C10.0463 18.0259 10.0516 18.0275 10.057 18.0292C11.2483 18.3767 12.5045 17.7144 12.8652 16.5364C13.2292 15.3478 12.5448 14.0856 11.3477 13.719Z" fill="#636363"/>
</g>
<defs>
<clipPath id="clip0">
<rect width="15" height="22" fill="white" transform="translate(7) rotate(17.025)"/>
</clipPath>
</defs>
</svg>
