<svg width="20" height="20" viewBox="0 0 20 20" fill="none" xmlns="http://www.w3.org/2000/svg">
<g clip-path="url(#clip0)">
<path d="M0.0185547 20H14.646V5.37268H0.0185547V20ZM1.32157 18.6966V6.67438H13.3433V18.6966" fill="#636363"/>
<path d="M17.992 15.9053V7.63305L19.6266 9.26798L19.9817 8.91396L17.741 6.67438L15.5015 8.91396L15.8561 9.26798L17.4907 7.63305V15.9053L15.8561 14.2707L15.5015 14.6247L17.741 16.865L19.9817 14.6247L19.6266 14.2707L17.992 15.9053Z" fill="#636363"/>
<path d="M4.80041 4.12548L3.16484 2.49095H11.4372L9.8013 4.12548L10.157 4.48019L12.3959 2.24061L10.157 0L9.8013 0.354714L11.4372 1.9893H3.16484L4.80041 0.354714L4.4461 0L2.20508 2.24061L4.4461 4.48019L4.80041 4.12548Z" fill="#636363"/>
</g>
<defs>
<clipPath id="clip0">
<rect width="20" height="20" fill="white"/>
</clipPath>
</defs>
</svg>
