<svg width="13" height="19" viewBox="0 0 13 19" fill="none" xmlns="http://www.w3.org/2000/svg">
<g clip-path="url(#clip0)">
<path d="M6.44512 3.63464C4.84367 3.63464 3.54053 4.93778 3.54053 6.53923C3.54053 8.14068 4.84367 9.44382 6.44512 9.44382C8.04657 9.44382 9.34971 8.14068 9.34971 6.53923C9.35363 4.93778 8.05049 3.63464 6.44512 3.63464ZM6.44512 8.26628C5.49131 8.26628 4.71806 7.49304 4.71806 6.53923C4.71806 5.58543 5.49131 4.81218 6.44512 4.81218C7.39892 4.81218 8.17217 5.58543 8.17217 6.53923C8.1761 7.49304 7.39892 8.26628 6.44512 8.26628Z" fill="#636363"/>
<path d="M6.4451 9.54193C4.7887 9.54193 3.44238 8.19562 3.44238 6.53922C3.44238 4.88282 4.7887 3.5365 6.4451 3.5365C8.1015 3.5365 9.44782 4.88282 9.44782 6.53922C9.45174 8.19562 8.1015 9.54193 6.4451 9.54193ZM6.4451 3.73276C4.8986 3.73276 3.63864 4.99272 3.63864 6.53922C3.63864 8.08571 4.8986 9.34568 6.4451 9.34568C7.9916 9.34568 9.25156 8.08571 9.25156 6.53922C9.25156 4.99272 7.99552 3.73276 6.4451 3.73276ZM6.4451 8.3644C5.44027 8.3644 4.61992 7.54405 4.61992 6.53922C4.61992 5.53439 5.44027 4.71404 6.4451 4.71404C7.44993 4.71404 8.27028 5.53439 8.27028 6.53922C8.27421 7.54797 7.45386 8.3644 6.4451 8.3644ZM6.4451 4.91029C5.54625 4.91029 4.81618 5.64036 4.81618 6.53922C4.81618 7.43807 5.54625 8.16814 6.4451 8.16814C7.34395 8.16814 8.07403 7.43807 8.07403 6.53922C8.07795 5.64036 7.34395 4.91029 6.4451 4.91029Z" fill="#636363"/>
<path d="M12.8744 5.85237C12.5329 2.57097 9.76964 0.0981445 6.44507 0.0981445C2.94386 0.0981445 0.0981445 2.94778 0.0981445 6.44506C0.0981445 7.17906 0.215898 7.90521 0.459256 8.67453C0.659437 9.30648 0.93812 9.80104 1.05587 10.013L1.08335 10.0601C1.08335 10.0601 1.08335 10.064 1.08728 10.064L5.92302 18.5737C6.02508 18.7582 6.22133 18.8681 6.42936 18.872H6.43329C6.64132 18.872 6.83365 18.7621 6.93963 18.5815C6.98281 18.507 11.2887 11.1709 11.5045 10.8098C11.8931 10.2053 12.4309 9.08274 12.6114 8.38015C12.8666 7.38317 12.949 6.57852 12.8744 5.85237ZM11.4731 8.08969C11.3436 8.59996 10.8805 9.61264 10.5076 10.1896C10.3231 10.4958 7.6069 15.1235 6.44114 17.1057L2.10781 9.48703L2.08033 9.43601C1.97043 9.23975 1.74277 8.83546 1.57792 8.32127C1.37381 7.6697 1.27176 7.05738 1.27176 6.44899C1.27176 3.59935 3.5915 1.27961 6.44114 1.27961C9.42423 1.27961 11.4574 3.67 11.6969 5.97797C11.7636 6.55889 11.689 7.23009 11.4731 8.08969Z" fill="#636363"/>
<path d="M6.43327 18.9701C6.18207 18.9701 5.95833 18.8367 5.83665 18.6208L0.969505 10.0601C0.847826 9.84813 0.569143 9.34571 0.365036 8.70592C0.117754 7.92874 0 7.19082 0 6.44505C0 2.89281 2.89281 0 6.44505 0C9.81673 0 12.6232 2.51208 12.9686 5.84058C13.0471 6.5785 12.9607 7.39493 12.7056 8.40368C12.5251 9.11806 11.9795 10.2524 11.587 10.8647C11.5006 11.01 10.6646 12.4269 7.17905 18.3656L7.02204 18.6325C6.90429 18.8406 6.67663 18.9701 6.43327 18.9701ZM6.44505 0.196256C2.99879 0.196256 0.196256 2.99879 0.196256 6.44505C0.196256 7.16727 0.31401 7.88557 0.553442 8.64312C0.749698 9.26328 1.02446 9.75392 1.14221 9.96196L1.16969 10.0091L6.00543 18.5266C6.09179 18.6796 6.25272 18.7739 6.42935 18.7739C6.60598 18.7739 6.76691 18.6796 6.85719 18.5305L7.01419 18.2636C9.77355 13.5652 11.2965 10.9707 11.4221 10.7627C11.8107 10.1621 12.3406 9.05525 12.5172 8.35658C12.7684 7.37138 12.8508 6.5785 12.7763 5.86413C12.4387 2.63376 9.7186 0.196256 6.44505 0.196256ZM6.44112 17.3019L1.99789 9.48309C1.88798 9.28683 1.6564 8.8747 1.48762 8.34873C1.27959 7.68931 1.17754 7.06914 1.17754 6.44505C1.17754 3.54046 3.54046 1.17754 6.44505 1.17754C9.48309 1.17754 11.5516 3.61111 11.7989 5.96226C11.8617 6.55888 11.7871 7.24185 11.5673 8.11322C11.4339 8.63919 10.9668 9.6558 10.59 10.2406C10.4644 10.4526 9.0945 12.7802 6.52748 17.1528L6.44112 17.3019ZM6.44505 1.37379C3.65036 1.37379 1.37379 3.65036 1.37379 6.44505C1.37379 7.04559 1.47192 7.65006 1.67603 8.28986C1.83696 8.7962 2.06069 9.19263 2.16667 9.38496L2.19414 9.43599L6.44112 16.9094C8.9532 12.6271 10.2956 10.3505 10.4212 10.1386C10.7862 9.57337 11.2455 8.56854 11.375 8.06612C11.5909 7.2183 11.6615 6.55888 11.6027 5.98581C11.3671 3.71709 9.37319 1.37379 6.44505 1.37379Z" fill="#636363"/>
</g>
<defs>
<clipPath id="clip0">
<rect width="13" height="18.9701" fill="white"/>
</clipPath>
</defs>
</svg>
